PathFileType	4	(X/Y/Z)	P:\Projects\LMB_grand_challenge_database\project_only\opensim\experimental_data\SixthCompetition/DM_ngait_og5_new.trc
DataRate	CameraRate	NumFrames	NumMarkers	Units	OrigDataRate	OrigDataStartFrame	OrigNumFrames
120	120	5	68	mm	120	299	342
Frame#	Time	Sternum			Neck			R_Shoulder			L_Shoulder			Xiphoid			Thoracic			R_Asis			L_Asis			R_Psis			L_Psis			Lumbar			R_Elbow			R_ElbowMedial			R_ShoulderAnterior			R_ShoulderPosterior			R_Wrist			R_Radius			R_Ulna			L_Elbow			L_ElbowMedial			L_ShoulderAnterior			L_ShoulderPosterior			L_Wrist			L_Ulna			L_Radius			L_Thigh_Superior			L_Thigh_Inferior			L_Thigh_Lateral			L_Knee_Lateral			L_Knee_Medial			L_Patella			L_Shank_Superior			L_Shank_Inferior			L_Shank_Lateral			L_Ankle_Lateral			L_Ankle_Medial			R_Thigh_Superior			R_Thigh_Inferior			R_Thigh_Lateral			R_Knee_Lateral			R_Knee_Medial			R_Patella			R_Shank_Superior			R_Shank_Inferior			R_Shank_Lateral			R_Ankle_Lateral			RankleMedial			R_Heel			R_Toe			R_Midfoot_Medial			R_Midfoot_Lateral			R_Hindfoot			R_Midfoot_Superior			R_ToeMedial			R_ToeLateral			L_Heel			L_Toe			L_Midfoot_Medial			L_Midfoot_Lateral			L_Hindfoot			L_Midfoot_Superior			L_ToeMedial			L_ToeLateral			Oglobal			Sacral			Xglobal			Yglobal			Zglobal			
		X1	Y1	Z1	X2	Y2	Z2	X3	Y3	Z3	X4	Y4	Z4	X5	Y5	Z5	X6	Y6	Z6	X7	Y7	Z7	X8	Y8	Z8	X9	Y9	Z9	X10	Y10	Z10	X11	Y11	Z11	X12	Y12	Z12	X13	Y13	Z13	X14	Y14	Z14	X15	Y15	Z15	X16	Y16	Z16	X17	Y17	Z17	X18	Y18	Z18	X19	Y19	Z19	X20	Y20	Z20	X21	Y21	Z21	X22	Y22	Z22	X23	Y23	Z23	X24	Y24	Z24	X25	Y25	Z25	X26	Y26	Z26	X27	Y27	Z27	X28	Y28	Z28	X29	Y29	Z29	X30	Y30	Z30	X31	Y31	Z31	X32	Y32	Z32	X33	Y33	Z33	X34	Y34	Z34	X35	Y35	Z35	X36	Y36	Z36	X37	Y37	Z37	X38	Y38	Z38	X39	Y39	Z39	X40	Y40	Z40	X41	Y41	Z41	X42	Y42	Z42	X43	Y43	Z43	X44	Y44	Z44	X45	Y45	Z45	X46	Y46	Z46	X47	Y47	Z47	X48	Y48	Z48	X49	Y49	Z49	X50	Y50	Z50	X51	Y51	Z51	X52	Y52	Z52	X53	Y53	Z53	X54	Y54	Z54	X55	Y55	Z55	X56	Y56	Z56	X57	Y57	Z57	X58	Y58	Z58	X59	Y59	Z59	X60	Y60	Z60	X61	Y61	Z61	X62	Y62	Z62	X63	Y63	Z63	X64	Y64	Z64	X65	Y65	Z65	X66	Y66	Z66	X67	Y67	Z67	X68	Y68	Z68	

300	4.108333	1306.49	1429.51	149.133	1459.84	1343.22	121.51	1424.48	1372.34	299.595	1338.18	1390.61	-35.0428	1477.58	1178.12	129.289	1211.3	1241.52	149.039	1392.49	957.0839999999999	288.338	1400.79	943.456	6.81206	1195.41	997.052	172.091	1197.81	992.05	93.8265	1198.37	1044.44	131.299	1443.82	1060.46	400.332	-0	0	0	-0	0	0	-0	0	0	1596.76	831.367	347.252	1582.65	845.564	304.596	1554.24	825.263	368.464	1204.07	1077.75	-109.749	-0	0	0	-0	0	0	-0	0	0	1177.75	808.451	-125.719	1139.46	836.537	-133.618	1193.2	823.253	-83.5342	1379.8	785.542	-30.7615	1486.47	593.968	26.955	1497.72	697.171	43.7258	-0	0	0	-0	0	0	1549.51	528.016	91.6648	1501.54	443.402	16.0242	1552.2	177.295	11.8865	1563.97	309.802	86.5526	-0	0	0	-0	0	0	1267.94	783.895	316.338	1209.12	573.875	273.254	1316.72	675.01	293.992	-0	0	0	-0	0	0	-0	0	0	1095.5	408.743	285.144	997.203	223.949	273.233	1114.41	303.556	204.644	-0	0	0	-0	0	0	858.213	124.36	224.785	1137.82	42.1738	209.531	1058.13	30.2635	161.581	1049.64	22.3704	278.278	943.8819999999999	56.0431	270.9	1030.84	127.352	224.576	1099.95	34.298	166.486	1097.43	34.9819	258.89	1515.55	52.4356	62.0141	1803.68	107.093	67.72150000000001	1770.15	79.5868	109.001	1773.25	80.8096	14.6984	-0	0	0	1659.76	139.524	59.6172	1770.15	79.5868	109.001	1773.25	80.8096	14.6984	-0	0	0	1196.61	994.551	132.959	-200	0	0	-0	0	200	-0	200	0	
301	4.116667	1316.23	1428.66	146.589	1469.97	1343.06	119.182	1433.89	1372.43	297.318	1347.64	1389.54	-37.4862	1488.39	1177.98	127.02	1221.9	1240.27	147.395	1403.34	955.831	286.993	1412.44	943.103	5.81267	1206.56	996.053	170.325	1209.08	991.023	92.3361	1209.54	1043.43	129.858	1453.84	1060.94	398.135	-0	0	0	-0	0	0	-0	0	0	1607.55	832.069	345.242	1592.79	846.575	302.628	1564.76	826.109	366.872	1214.19	1076.11	-111.519	-0	0	0	-0	0	0	-0	0	0	1188.98	806.558	-127.598	1150.59	834.904	-135.753	1204.25	821.872	-85.2231	1394.78	786.023	-29.1753	1497.45	593.045	30.4334	1512.63	694.701	44.4431	-0	0	0	-0	0	0	1560.78	526.4160000000001	93.4336	1513.6	442.954	15.8875	1559.67	175.64	10.7968	1572.05	307.52	86.8768	-0	0	0	-0	0	0	1278.25	782.7089999999999	315.193	1219.6	572.823	272.414	1326.76	673.713	293.812	-0	0	0	-0	0	0	-0	0	0	1104.44	409.809	284.776	1001.83	227.061	273.692	1122	303.58	205.384	-0	0	0	-0	0	0	862.115	130.607	224.981	1138.45	40.683	209.201	1059.15	30.603	161.807	1050.21	22.6001	278.463	945.782	59.5359	271.016	1034.67	128.284	225.073	1100.44	33.8713	166.557	1097.98	34.5108	258.991	1517.76	53.5654	61.4289	1807.88	97.0077	68.2724	1772.99	71.0271	109.421	1776.56	71.6379	15.1634	-0	0	0	1665.41	134.971	59.0809	1772.99	71.0271	109.421	1776.56	71.6379	15.1634	-0	0	0	1207.82	993.538	131.33	-200	0	0	-0	0	200	-0	200	0	
302	4.125	1325.99	1428	144.132	1480.01	1342.91	116.773	1443.97	1373.16	295.441	1357.3	1388.39	-39.6361	1499.21	1177.74	124.775	1232.54	1239.15	145.846	1414.14	954.213	285.696	1424.03	943.231	4.8091	1217.71	995.272	168.716	1220.22	990.124	90.8395	1220.69	1042.59	128.728	1463.8	1061.51	395.98	-0	0	0	-0	0	0	-0	0	0	1617.8	832.912	343.486	1602.45	847.6420000000001	300.389	1574.92	826.893	365.284	1224.71	1074.53	-113.192	-0	0	0	-0	0	0	-0	0	0	1200.48	804.7089999999999	-129.65	1162.13	833.216	-137.691	1215.7	820.2619999999999	-87.21510000000001	1408.79	786.896	-27.0058	1509.66	592.426	31.6083	1525.5	691.106	45.9562	-0	0	0	-0	0	0	1572.27	525.269	94.10420000000001	1527.24	442.489	15.9537	1566.59	174.161	9.5892	1579.29	304.762	86.4718	-0	0	0	-0	0	0	1288.72	781.5650000000001	313.915	1230.68	571.629	271.403	1337.43	672.568	293.563	-0	0	0	-0	0	0	-0	0	0	1114.16	410.846	284.19	1008.05	229.806	273.275	1130.31	303.334	206.048	-0	0	0	-0	0	0	866.711	137.602	225.064	1139.2	39.2055	209.119	1060.21	30.698	162.256	1050.75	22.9787	278.89	947.859	63.6911	271.175	1039.16	129.16	225.511	1101.13	33.1701	166.527	1098.59	34.0123	258.982	1519.62	54.8418	60.8656	1811.24	88.0432	66.5745	1774.3	62.9707	108.74	1779.27	63.1916	13.9648	-0	0	0	1670.25	130.678	57.5017	1774.3	62.9707	108.74	1779.27	63.1916	13.9648	-0	0	0	1218.96	992.698	129.778	-200	0	0	-0	0	200	-0	200	0	
303	4.133333	1335.83	1427.44	141.666	1490.13	1342.86	114.405	1453.22	1373.15	292.549	1367.14	1387.27	-41.8478	1510.16	1177.84	122.551	1243.08	1238.4	144.339	1424.92	952.856	284.287	1435.39	943.429	3.8351	1228.73	994.616	167.152	1231.2	989.544	89.3738	1231.73	1041.97	127.63	1473.55	1062.27	394.105	-0	0	0	-0	0	0	-0	0	0	1627.67	833.775	341.76	1612.17	848.88	299.343	1584.98	828.313	364.281	1235.54	1072.9	-114.977	-0	0	0	-0	0	0	-0	0	0	1212.92	803.409	-133.143	1174	831.37	-139.869	1227.67	818.572	-89.2983	1422.17	787.9829999999999	-24.853	1522.91	591.468	31.3634	1536.77	687.71	49.042	-0	0	0	-0	0	0	1584.24	524.972	94.3699	1540.77	442.139	15.9723	1573.06	173.199	8.73465	1586.43	302.319	86.283	-0	0	0	-0	0	0	1299.47	780.1180000000001	312.499	1242.85	570.129	270.268	1348.68	671.378	293.184	-0	0	0	-0	0	0	-0	0	0	1124.64	411.781	283.765	1015.4	232.592	273.204	1139.2	303.134	206.565	-0	0	0	-0	0	0	871.8920000000001	145.496	225.492	1140.04	37.6951	209.025	1061	30.6977	163.228	1051.4	24.1746	279.923	950.266	69.0453	271.871	1044.07	130.332	225.806	1101.85	32.6978	166.628	1099.22	33.5497	259.078	1521.38	55.9375	60.516	1815.17	80.3664	65.01690000000001	1776.96	56.9215	107.604	1781.36	55.4933	12.5681	-0	0	0	1674.56	127.126	55.6998	1776.96	56.9215	107.604	1781.36	55.4933	12.5681	-0	0	0	1229.96	992.08	128.263	-200	0	0	-0	0	200	-0	200	0	
304	4.141667	1345.69	1427.11	139.191	1500.36	1342.83	112.068	1463.11	1373.78	290.59	1377.04	1386.27	-44.1447	1520.92	1177.96	120.537	1253.59	1237.97	143.03	1435.54	951.723	283.004	1446.64	943.523	3.05228	1239.62	994.069	165.616	1242.11	989.126	88.0609	1242.68	1041.48	126.544	1483.06	1063.2	392.252	-0	0	0	-0	0	0	-0	0	0	1637.04	834.617	340.23	1621.2	850.1319999999999	297.786	1593.88	828.989	362.455	1246.55	1071.43	-116.689	-0	0	0	-0	0	0	-0	0	0	1225.67	802.3390000000001	-136.293	1186.37	829.735	-141.972	1240.04	816.9930000000001	-91.309	1434.34	788.869	-23.2292	1536.48	591.2670000000001	29.9864	1547.53	686.937	53.7119	-0	0	0	-0	0	0	1595.86	525.011	93.7607	1553.4	442.095	15.8368	1578.29	171.734	7.55933	1593.67	301.307	85.7927	-0	0	0	-0	0	0	1310.43	778.745	310.952	1255.34	568.346	269.314	1360.45	670.193	292.533	-0	0	0	-0	0	0	-0	0	0	1136.13	412.629	283.198	1022.86	235.755	274.52	1148.91	303.135	206.89	-0	0	0	-0	0	0	878.771	153.963	225.263	1141.06	35.9918	209.02	1062.81	30.7424	163.925	1052.9	25.4433	280.656	953.753	74.3278	272.374	1049.56	131.517	225.801	1102.69	32.07	166.68	1100.4	32.9193	259.055	1522.48	57.2141	60.2581	1818	73.30549999999999	64.7617	1779.23	51.4602	107.433	1783.08	49.2081	12.3502	-0	0	0	1677.97	123.922	55.106	1779.23	51.4602	107.433	1783.08	49.2081	12.3502	-0	0	0	1240.87	991.598	126.838	-200	0	0	-0	0	200	-0	200	0	
